<?xml version="1.0" standalone="no"?>
<!DOCTYPE svg PUBLIC "-//W3C//DTD SVG 20010904//EN"
 "http://www.w3.org/TR/2001/REC-SVG-20010904/DTD/svg10.dtd">
<svg version="1.0" xmlns="http://www.w3.org/2000/svg"
 width="944.000000pt" height="944.000000pt" viewBox="0 0 944.000000 944.000000"
 preserveAspectRatio="xMidYMid meet">
<metadata>
Created by potrace 1.11, written by Peter Selinger 2001-2013
</metadata>
<g transform="translate(0.000000,944.000000) scale(0.100000,-0.100000)"
fill="#000000" stroke="none">
<path d="M3000 8799 c-1208 -47 -2196 -239 -2433 -474 -66 -66 -67 -71 -67
-392 0 -272 1 -289 21 -331 100 -206 745 -389 1694 -481 350 -34 789 -59 1130
-64 l150 -2 -220 -14 c-268 -18 -882 -19 -1125 -2 -499 34 -961 115 -1320 230
-68 22 -125 39 -125 38 -1 -1 105 -1401 236 -3112 203 -2660 240 -3115 255
-3143 55 -102 294 -200 679 -277 848 -171 2242 -192 3220 -49 614 90 959 222
979 375 3 24 51 641 106 1371 95 1253 100 1329 85 1365 -37 87 -141 455 -196
688 -60 256 -128 651 -155 899 -8 76 -13 141 -11 143 2 2 10 -31 16 -74 7 -43
30 -158 52 -255 193 -876 606 -2012 1084 -2983 469 -951 912 -1563 1170 -1618
54 -11 54 -11 229 59 97 38 176 72 176 75 0 3 -24 22 -52 41 -401 266 -939
1154 -1347 2220 -70 184 -231 660 -231 682 0 6 45 -99 99 -234 277 -688 561
-1273 862 -1775 410 -683 742 -992 897 -832 55 57 74 130 79 309 10 298 -49
677 -187 1198 -53 199 -164 577 -172 586 -3 3 -102 -33 -219 -81 -117 -47
-225 -85 -239 -85 -88 0 -192 248 -134 317 12 13 105 56 239 109 121 48 223
90 227 93 7 6 -92 285 -196 551 -66 167 -296 711 -305 722 -4 5 -108 -33 -231
-82 -123 -50 -234 -90 -247 -90 -58 0 -139 121 -150 222 -10 98 -6 101 246
202 122 48 221 90 221 92 0 10 -189 380 -267 522 -257 469 -487 806 -688 1007
-116 116 -194 168 -272 181 -34 5 -63 -3 -194 -55 -84 -33 -154 -59 -155 -58
-1 1 62 39 141 85 l144 83 5 42 c3 23 17 191 31 372 23 318 25 331 47 345 56
38 104 78 132 113 l31 39 3 310 3 310 -25 42 c-136 233 -953 429 -2106 506
-441 29 -1143 37 -1620 19z m1190 -89 c1227 -50 2126 -238 2234 -465 23 -48
14 -83 -35 -133 -133 -134 -579 -262 -1174 -337 -1543 -193 -3600 -68 -4245
260 -107 55 -176 146 -149 197 78 149 380 263 944 357 634 106 1605 154 2425
121z m-1963 -2276 c60 -29 105 -84 121 -147 6 -23 18 -269 27 -547 9 -278 36
-1092 60 -1810 57 -1669 55 -1526 22 -1583 -73 -124 -203 -142 -303 -42 -29
30 -47 59 -58 96 -12 41 -24 247 -51 864 -20 446 -59 1292 -86 1880 -28 589
-48 1095 -46 1126 8 93 60 153 161 185 49 16 84 10 153 -22z m1499 0 c55 -26
97 -76 114 -135 13 -44 -7 -3815 -20 -3881 -12 -59 -48 -115 -97 -148 -53 -36
-143 -36 -196 2 -53 36 -86 88 -97 151 -12 68 -32 3835 -21 3875 22 74 82 131
166 158 48 16 83 10 151 -22z m1442 24 c91 -22 157 -89 168 -170 3 -24 -33
-896 -80 -1938 -68 -1495 -90 -1906 -102 -1949 -41 -141 -199 -205 -303 -122
-56 45 -81 101 -81 187 -1 183 122 3774 130 3812 22 96 102 166 218 191 2 1
24 -4 50 -11z m-3813 -4648 c361 -144 962 -235 1790 -271 290 -13 920 -7 1205
11 724 45 1300 145 1593 279 37 16 67 28 67 27 0 -2 -28 -22 -62 -44 -236
-153 -755 -260 -1578 -324 -224 -18 -1265 -18 -1490 0 -621 48 -1015 111
-1330 214 -110 35 -259 109 -286 141 -11 12 -12 17 -4 10 8 -6 51 -26 95 -43z"/>
<path d="M7945 4955 c-22 -8 -161 -63 -309 -123 -246 -98 -270 -110 -277 -135
-16 -60 42 -208 93 -236 22 -11 51 -2 314 103 159 64 301 116 316 116 18 0 40
-12 62 -32 29 -28 69 -121 265 -613 127 -319 231 -590 231 -603 0 -32 -25 -76
-52 -94 -13 -8 -146 -64 -297 -124 -231 -92 -275 -112 -283 -133 -19 -53 37
-202 89 -237 24 -15 36 -11 330 107 338 135 377 158 443 260 62 97 80 226 46
341 -8 29 -121 315 -249 635 -244 608 -259 637 -344 702 -75 58 -145 81 -248
80 -52 0 -107 -6 -130 -14z"/>
</g>
</svg>
